<svg width="84" height="57" viewBox="0 0 84 57" fill="none" xmlns="http://www.w3.org/2000/svg">
<path d="M80.7539 2.48485C80.2555 2 79.2586 2 78.5109 2C54.8349 8.30303 5.23988 2 4.74143 2C3.99377 2 3.49533 2.24242 2.74766 2.48485C2.24922 2.9697 2 3.69697 2 4.42424V52.9091C2 53.6364 2.24922 54.3636 2.99688 54.8485C3.49533 55.3333 4.49221 55.3333 5.23988 55.3333C29.1651 49.0303 54.5857 49.0303 78.7601 55.3333C79.0094 55.3333 79.2586 55.3333 79.5078 55.3333C80.0062 55.3333 80.5047 55.0909 81.0031 54.8485C81.5016 54.3636 82 53.6364 82 52.9091V4.42424C81.7508 3.69697 81.5016 2.9697 80.7539 2.48485ZM11.9688 35.9394C11.9688 37.3939 10.972 38.3636 9.47664 38.3636C7.98131 38.3636 6.98442 37.3939 6.98442 35.9394V21.3939C6.98442 19.9394 7.98131 18.9697 9.47664 18.9697C10.972 18.9697 11.9688 19.9394 11.9688 21.3939V35.9394ZM34.3988 35.9394C34.3988 37.3939 33.4019 38.3636 31.9065 38.3636C30.4112 38.3636 29.4143 37.3939 29.4143 35.9394V27.2121L26.1745 30.3636C25.1776 31.3333 23.6822 31.3333 22.6854 30.3636L19.4455 27.2121V35.9394C19.4455 37.3939 18.4486 38.3636 16.9533 38.3636C15.4579 38.3636 14.4611 37.3939 14.4611 35.9394V21.3939C14.4611 20.4242 14.9595 19.4545 15.9564 19.2121C16.9533 18.7273 17.9502 18.9697 18.6978 19.697L24.4299 25.2727L30.162 19.697C30.9097 18.9697 31.9065 18.7273 32.9034 19.2121C33.9003 19.697 34.3988 20.4242 34.3988 21.3939V35.9394ZM55.3333 38.1212C55.0841 38.3636 54.8349 38.3636 54.3365 38.3636C53.3396 38.3636 52.5919 37.8788 52.0935 36.9091L51.595 35.9394H46.8598C45.3645 35.9394 44.3676 34.9697 44.3676 33.5152C44.3676 32.0606 45.3645 31.0909 46.8598 31.0909H49.1028L46.8598 26.7273L41.6262 36.9091C41.1277 38.1212 39.6324 38.6061 38.3863 37.8788C37.1402 37.3939 36.6417 35.9394 37.3894 34.7273L44.8661 20.1818C45.6137 18.4848 48.6044 18.4848 49.352 20.1818L56.8287 34.7273C57.0779 35.9394 56.5794 37.3939 55.3333 38.1212ZM76.2679 34.4848C77.2648 35.4545 77.0156 37.1515 76.0187 37.8788C75.5203 38.1212 74.7726 38.3636 74.2741 38.3636C73.5265 38.3636 72.7788 38.1212 72.2804 37.3939L68.0436 32.303L63.8069 37.3939C63.3084 38.1212 62.5608 38.3636 61.8131 38.3636C61.3146 38.3636 60.567 38.1212 60.3178 37.8788C59.3209 36.9091 59.0717 35.4545 60.0685 34.4848L65.053 28.6667L60.0685 22.8485C59.0717 21.8788 59.3209 20.1818 60.3178 19.4545C61.3146 18.7273 63.0592 18.7273 63.8069 19.697L68.0436 24.7879L72.2804 19.697C73.2773 18.7273 74.7726 18.4848 75.7695 19.4545C76.7664 20.4242 77.0156 21.8788 76.0187 22.8485L71.0343 28.6667L76.2679 34.4848Z" fill="#F50000" stroke="#F50000" stroke-width="3.0625"/>
</svg>
