<svg width="34" height="44" viewBox="0 0 34 44" fill="none" xmlns="http://www.w3.org/2000/svg">
<path d="M16.9998 17.7895C21.1419 17.7895 24.4998 14.2549 24.4998 9.89474C24.4998 5.53459 21.1419 2 16.9998 2C12.8576 2 9.49976 5.53459 9.49976 9.89474C9.49976 14.2549 12.8576 17.7895 16.9998 17.7895Z" stroke="#DF0A0A" stroke-width="4"/>
<path d="M31.9953 33.5789C32 33.2548 32 32.9256 32 32.592C32 27.6868 25.2843 23.7104 17 23.7104C8.71572 23.7104 2 27.6868 2 32.592C2 37.4972 2 41.4736 17 41.4736C21.1831 41.4736 24.1996 41.1643 26.375 40.6119" stroke="#DF0A0A" stroke-width="4" stroke-linecap="round"/>
</svg>
